<?xml version="1.0" encoding="iso-8859-1"?>
<!-- Uploaded to: SVG Repo, www.svgrepo.com, Generator: SVG Repo Mixer Tools -->
<!DOCTYPE svg PUBLIC "-//W3C//DTD SVG 1.1//EN" "http://www.w3.org/Graphics/SVG/1.1/DTD/svg11.dtd">
<svg fill="#000000" height="800px" width="800px" version="1.1" id="Capa_1" xmlns="http://www.w3.org/2000/svg" xmlns:xlink="http://www.w3.org/1999/xlink" 
	 viewBox="0 0 475.837 475.837" xml:space="preserve">
<g>
	<path d="M474.797,344.009c-0.535-9.077-6.089-17.086-14.169-20.889c-0.488-4.9-1.563-11.374-3.902-18.132
		c-6.5-18.779-19.552-30.629-37.744-34.268c-10.064-2.013-22.078-3.438-34.797-4.947c-36.829-4.37-82.552-9.795-104.965-33.27
		c-4.539-15.329-16.141-26.798-34.487-33.57c-48.688-17.978-58.446-75.427-64.276-109.752c-1.636-9.632-2.928-17.238-4.756-22.267
		c-0.646-1.775-2.238-3.036-4.115-3.257c-21.683-2.551-56.579,1.089-103.72,10.819C32.977,81.678,3.95,89.725,3.66,89.806
		c-2.543,0.708-4.098,3.271-3.551,5.854c0.179,0.844,17.861,84.712,16.895,111.788c-0.22,6.23-1.233,14.466-2.342,23.066
		c0,0.001,0,0.002,0,0.002l-0.552,4.267c-3.948,30.455-8.771,67.738,1.531,91.464c-1.905,0.879-3.664,2.088-5.182,3.631
		c-3.334,3.389-5.128,7.872-5.051,12.625l0.655,40.618c0.119,7.41,6.008,13.564,13.404,14.012l107.231,6.482
		c2.499,0.15,4.694-1.546,5.198-3.979l5.186-25.065c9.593,0.038,35.674,1.084,62.481,10.346c7.949,2.747,13.901,9.524,15.533,17.688
		c0.392,1.954,1.905,3.489,3.854,3.908c1.299,0.279,30.582,6.458,73.792,6.457c2.708,0,5.477-0.024,8.29-0.076
		c44.075-0.807,109.318-8.829,169.84-42.462c3.222-1.789,5.163-5.331,4.947-9.026L474.797,344.009z M275.272,279.524
		c4.207-11.627,6.23-22.316,6.121-31.929c26.299,19.17,67.591,24.07,101.612,28.107c12.517,1.485,24.339,2.888,34.015,4.823
		c14.637,2.927,24.785,12.168,30.162,27.465c2.95,8.392,3.645,16.472,3.795,20.594c-7.284,3.492-31.991,13.979-91.144,28.176
		c-71.976,17.275-141.277-0.641-176.182-12.857C132.768,326.095,55.879,324.56,30.91,324.56c-2.029,0-3.717,0.01-5.018,0.022
		c-8.403-16.361-7.029-44.081-4.243-69.184l2.593,0.482c0.309,0.058,0.616,0.085,0.92,0.085c2.361,0,4.462-1.681,4.91-4.087
		c0.505-2.715-1.287-5.325-4.002-5.83l-3.243-0.603c0.359-2.875,0.722-5.688,1.075-8.412l245.754,45.704
		C272.07,283.182,274.44,281.826,275.272,279.524z M167.2,73.269c0.748,2.831,1.457,6.462,2.188,10.572l-18.294-4.098
		c-2.691-0.607-5.369,1.091-5.972,3.786c-0.604,2.694,1.092,5.368,3.786,5.972l22.311,4.998c1.461,8.527,3.235,18.323,5.771,28.556
		l-16.868,2.98c-2.719,0.48-4.534,3.074-4.054,5.794c0.429,2.425,2.538,4.131,4.918,4.131c0.289,0,0.582-0.025,0.876-0.077
		l17.744-3.135c1.862,6.335,4.067,12.731,6.711,19.013l-14.257,5.276c-2.59,0.959-3.912,3.835-2.954,6.425
		c0.747,2.018,2.657,3.266,4.69,3.266c0.576,0,1.162-0.1,1.734-0.312l15.005-5.553c3.752,7.381,8.006,14.025,12.762,19.907
		l-11.48,9.833c-2.097,1.797-2.341,4.953-0.545,7.051c0.989,1.154,2.391,1.747,3.8,1.747c1.151,0,2.308-0.396,3.251-1.202
		l11.652-9.98c5.153,5.157,10.801,9.544,16.905,13.192l-11.662,11.46c-1.97,1.936-1.997,5.102-0.062,7.071
		c0.979,0.996,2.272,1.495,3.566,1.495c1.266,0,2.531-0.478,3.505-1.434l13.993-13.751c1.656,0.731,3.333,1.428,5.048,2.061
		c9.389,3.466,16.602,8.285,21.613,14.388l-9.75,6.826c-2.262,1.584-2.812,4.701-1.228,6.964c0.973,1.389,2.523,2.132,4.1,2.132
		c0.99,0,1.991-0.293,2.864-0.904l9.234-6.465c0.952,2.21,1.705,4.534,2.234,6.981c2.08,9.623,1.036,21.004-3.1,33.882L25.177,227.1
		c0.89-7.123,1.628-13.829,1.821-19.299c0.363-10.162-1.647-27.31-4.406-45.275c26.374-6.338,69.825-11.534,94.222-14.144
		c6.04-0.646,11.416-3.645,15.139-8.442c3.723-4.797,5.29-10.749,4.416-16.759l-7.08-48.646
		C143.438,73.013,156.575,72.396,167.2,73.269z M119.357,75.727l7.116,48.894c0.48,3.296-0.38,6.56-2.42,9.189
		c-2.041,2.631-4.989,4.274-8.303,4.629c-24.395,2.61-67.691,7.789-94.737,14.182c-3.747-22.719-8.209-44.946-10.156-54.4
		C25.879,94.225,75.635,81.474,119.357,75.727z M301.128,402.89c-38.578,0.723-67.906-3.912-77.073-5.578
		c-3.147-10.119-11.032-18.325-21.225-21.847c-35.455-12.251-68.657-10.897-70.057-10.837c-2.283,0.104-4.206,1.743-4.669,3.982
		l-5.123,24.761l-102.91-6.222c-2.213-0.133-3.974-1.975-4.01-4.191l-0.655-40.617c-0.032-2.052,0.741-3.987,2.181-5.45
		c1.439-1.462,3.362-2.268,5.414-2.268c0,0,0.684-0.012,1.607-0.021c12.621-0.131,101.255-0.33,155.742,18.741
		c25.248,8.837,67.997,20.563,117.019,20.563c20.759,0,42.647-2.104,64.8-7.42c74.886-17.973,95.562-30.068,96.405-30.575
		c0.571-0.342,1.054-0.792,1.439-1.312c2.783,2.535,4.572,6.1,4.802,9.998l1.012,17.198
		C407.252,394.285,343.942,402.078,301.128,402.89z"/>
	<path d="M102.357,260.238l-16.059-2.986c-2.708-0.506-5.325,1.286-5.83,4.002c-0.505,2.715,1.287,5.325,4.002,5.83l16.059,2.986
		c0.309,0.058,0.616,0.085,0.92,0.085c2.361,0,4.463-1.681,4.91-4.087C106.864,263.353,105.072,260.743,102.357,260.238z"/>
	<path d="M140.495,267.331l-16.059-2.986c-2.708-0.503-5.326,1.286-5.83,4.002c-0.505,2.715,1.287,5.325,4.002,5.83l16.059,2.986
		c0.309,0.058,0.616,0.085,0.92,0.085c2.361,0,4.463-1.681,4.91-4.087C145.002,270.446,143.21,267.836,140.495,267.331z"/>
	<path d="M64.22,253.145l-16.058-2.986c-2.709-0.508-5.325,1.286-5.83,4.002c-0.505,2.715,1.287,5.325,4.002,5.83l16.058,2.986
		c0.309,0.058,0.616,0.085,0.92,0.085c2.361,0,4.463-1.681,4.91-4.087C68.727,256.261,66.935,253.65,64.22,253.145z"/>
	<path d="M216.769,281.517l-16.058-2.987c-2.709-0.507-5.324,1.286-5.83,4.002c-0.505,2.715,1.287,5.324,4.002,5.83l16.058,2.987
		c0.309,0.058,0.616,0.085,0.92,0.085c2.361,0,4.462-1.681,4.91-4.087C221.276,284.633,219.484,282.023,216.769,281.517z"/>
	<path d="M276.122,300.683c0.468,0,0.943-0.065,1.415-0.205c6.774-1.996,12.326-7.111,14.852-13.684
		c0.989-2.578-0.297-5.471-2.875-6.461c-2.581-0.987-5.471,0.297-6.461,2.875c-1.415,3.686-4.534,6.556-8.342,7.678
		c-2.648,0.78-4.163,3.561-3.383,6.209C271.97,299.273,273.962,300.683,276.122,300.683z"/>
	<path d="M254.907,288.61l-16.058-2.986c-2.705-0.505-5.325,1.286-5.83,4.002c-0.505,2.715,1.287,5.325,4.002,5.83l16.058,2.986
		c0.309,0.058,0.616,0.085,0.92,0.085c2.361,0,4.463-1.681,4.91-4.087C259.414,291.725,257.622,289.115,254.907,288.61z"/>
	<path d="M178.632,274.424l-16.058-2.986c-2.708-0.509-5.325,1.286-5.83,4.002c-0.505,2.715,1.287,5.325,4.002,5.83l16.058,2.986
		c0.309,0.058,0.616,0.085,0.92,0.085c2.361,0,4.463-1.681,4.91-4.087C183.139,277.539,181.347,274.929,178.632,274.424z"/>
</g>
</svg>