<?xml version="1.0" encoding="iso-8859-1"?>
<!-- Uploaded to: SVG Repo, www.svgrepo.com, Generator: SVG Repo Mixer Tools -->
<!DOCTYPE svg PUBLIC "-//W3C//DTD SVG 1.1//EN" "http://www.w3.org/Graphics/SVG/1.1/DTD/svg11.dtd">
<svg fill="#000000" height="800px" width="800px" version="1.1" id="Capa_1" xmlns="http://www.w3.org/2000/svg" xmlns:xlink="http://www.w3.org/1999/xlink" 
	 viewBox="0 0 435.186 435.186" xml:space="preserve">
<path d="M430.033,309.293c-2.69-10.331-11.282-18.064-21.617-19.938c-6.525-74.699-58.507-135.976-127.398-157.104l11.806-9.213
	c1.871-1.46,2.458-4.035,1.404-6.162l-7.06-14.25l7.059-14.24c1.055-2.126,0.469-4.7-1.401-6.161l-12.534-9.79l0.156-15.901
	c0.022-2.371-1.622-4.432-3.939-4.935l-15.54-3.375l-6.73-14.397c-1.005-2.15-3.379-3.299-5.694-2.745l-15.467,3.705l-12.333-10.031
	c-1.838-1.495-4.474-1.495-6.312,0.001l-12.323,10.03l-15.466-3.704c-2.315-0.555-4.69,0.594-5.695,2.746l-6.73,14.405
	l-15.538,3.365c-2.318,0.502-3.965,2.564-3.941,4.936l0.156,15.9l-12.534,9.79c-1.87,1.461-2.456,4.035-1.401,6.161l7.06,14.24
	l-7.061,14.25c-1.054,2.127-0.467,4.701,1.404,6.162l11.806,9.213C85.278,153.379,33.297,214.656,26.771,289.354
	c-10.337,1.874-18.929,9.607-21.618,19.939c-6.87,26.398-6.87,53.168,0,79.566c3.044,11.695,13.648,20.075,25.79,20.377
	c61.926,1.542,124.288,2.313,186.65,2.313c62.361,0,124.724-0.771,186.65-2.313c12.14-0.303,22.745-8.682,25.79-20.377
	C436.904,362.462,436.904,335.692,430.033,309.293z M394.093,307.851c5.673,27.355,5.673,55.095,0,82.449
	c-0.74,3.565-2.265,6.787-4.345,9.272c-11.327,0.26-22.663,0.5-34.014,0.709c0.988-2.529,1.743-5.283,2.196-8.201
	c4.418-28.536,4.418-57.474-0.001-86.012c-0.452-2.917-1.207-5.669-2.194-8.197c11.351,0.209,22.688,0.449,34.015,0.709
	C391.829,301.066,393.354,304.287,394.093,307.851z M251.226,306.677c-0.117-3.711-0.345-7.087-0.659-9.993
	c14.133,0.062,28.261,0.161,42.381,0.302c1.037,2.672,1.831,6.325,2.214,10.32c2.618,27.716,2.618,55.823,0,83.534
	c-0.383,4.001-1.178,7.657-2.215,10.329c-14.12,0.141-28.248,0.24-42.38,0.302c0.314-2.906,0.542-6.282,0.66-9.991
	C252.145,363.342,252.145,334.809,251.226,306.677z M183.962,391.474c0.118,3.719,0.344,7.096,0.654,9.996
	c-14.132-0.062-28.259-0.161-42.378-0.302c-1.042-2.678-1.836-6.332-2.212-10.323c-2.618-27.716-2.618-55.823,0.001-83.542
	c0.374-3.988,1.168-7.64,2.21-10.318c14.119-0.141,28.247-0.24,42.379-0.302c-0.311,2.899-0.536,6.273-0.654,9.987
	C183.032,334.808,183.032,363.343,183.962,391.474z M41.094,390.301c-5.673-27.355-5.673-55.095,0-82.449
	c0.741-3.572,2.265-6.792,4.342-9.27c11.328-0.26,22.665-0.5,34.017-0.709c-0.988,2.529-1.743,5.281-2.196,8.199
	c-4.417,28.536-4.417,57.474,0.001,86.012c0.452,2.917,1.207,5.67,2.196,8.199c-11.352-0.209-22.689-0.449-34.016-0.709
	C43.36,397.095,41.835,393.873,41.094,390.301z M168.736,140.822c-10.259,8.326-19.732,19.688-28.034,33.814
	c-17.6,29.946-28.458,69.777-30.826,112.744c-12.931,0.185-25.851,0.401-38.757,0.653
	C76.789,218.328,116.423,160.738,168.736,140.822z M119.898,287.24c2.356-41.13,12.712-79.1,29.425-107.537
	c14.237-24.223,31.887-39.629,50.632-44.217c-5.294,8.542-9.908,22.035-13.924,40.628c-6.347,29.383-10.279,68.436-11.174,110.615
	C156.524,286.833,138.202,287.003,119.898,287.24z M87.14,390.551c-4.261-27.521-4.261-55.429-0.001-82.948
	c0.601-3.871,1.876-7.36,3.569-9.922c13.654-0.23,27.321-0.424,40.999-0.58c-0.76,2.788-1.32,5.912-1.635,9.266
	c-2.678,28.34-2.678,57.08-0.001,85.418c0.316,3.356,0.877,6.481,1.637,9.271c-13.678-0.156-27.344-0.35-40.998-0.58
	C89.016,397.912,87.74,394.421,87.14,390.551z M184.86,286.682c0.891-41.455,4.742-79.737,10.945-108.457
	c5.014-23.208,10.429-35.104,14.594-40.429c1.726-2.207,4.394-3.461,7.195-3.461s5.469,1.254,7.195,3.461
	c4.164,5.325,9.58,17.221,14.593,40.429c6.203,28.719,10.055,67.002,10.946,108.457C228.508,286.588,206.68,286.588,184.86,286.682z
	 M364.068,288.032c-12.905-0.251-25.825-0.468-38.756-0.653c-2.368-42.966-13.227-82.798-30.827-112.744
	c-8.311-14.141-17.798-25.5-28.07-33.829C318.746,160.711,358.396,218.312,364.068,288.032z M285.865,179.703
	c16.713,28.437,27.07,66.407,29.426,107.537c-18.304-0.237-36.626-0.408-54.958-0.511c-0.896-42.179-4.828-81.233-11.175-110.615
	c-4.02-18.61-8.641-32.091-13.941-40.632C253.967,140.065,271.624,155.473,285.865,179.703z M305.116,306.36
	c-0.321-3.356-0.883-6.477-1.641-9.26c13.68,0.156,27.349,0.35,41.005,0.58c1.693,2.562,2.967,6.051,3.567,9.921
	c4.262,27.521,4.262,55.429,0.001,82.948c-0.601,3.873-1.876,7.363-3.569,9.925c-13.656,0.23-27.324,0.424-41.004,0.58
	c0.758-2.785,1.321-5.908,1.642-9.268C307.794,363.446,307.794,334.706,305.116,306.36z M398.319,288.778
	c-8.062-0.194-16.132-0.375-24.208-0.543c-3.346-43.613-19.474-84.04-45.729-114.34c-6.354-7.333-13.169-13.89-20.347-19.672
	C357.406,180.433,392.695,230.147,398.319,288.778z M162.995,126.454l-11.267-8.792l6.351-12.817
	c0.693-1.399,0.692-3.042-0.001-4.44l-6.35-12.808l11.269-8.801c1.227-0.958,1.937-2.433,1.922-3.99l-0.141-14.296l13.979-3.027
	c1.526-0.331,2.811-1.355,3.472-2.77l6.053-12.954l13.902,3.33c1.513,0.361,3.112-0.001,4.321-0.984l11.085-9.022l11.094,9.023
	c1.209,0.982,2.804,1.345,4.32,0.983l13.903-3.33l6.052,12.945c0.66,1.414,1.943,2.438,3.469,2.769l13.98,3.036l-0.14,14.299
	c-0.015,1.556,0.695,3.031,1.922,3.989l11.268,8.801l-6.349,12.808c-0.693,1.399-0.694,3.042-0.001,4.44l6.35,12.817l-11.266,8.792
	c-0.932,0.728-1.564,1.754-1.809,2.887c-13.578-3.267-27.725-5.005-42.245-5.005h-21.09c-14.52,0-28.667,1.738-42.245,5.005
	C164.56,128.208,163.928,127.181,162.995,126.454z M127.137,154.232c-7.173,5.779-13.983,12.335-20.333,19.664
	c-26.255,30.3-42.382,70.727-45.728,114.34c-8.076,0.168-16.145,0.349-24.208,0.543C42.492,230.153,77.775,180.444,127.137,154.232z
	 M14.83,386.341c-6.435-24.727-6.435-49.802,0-74.529c1.927-7.403,8.654-12.707,16.36-12.899c0.79-0.02,1.583-0.036,2.373-0.055
	c-0.985,2.171-1.75,4.5-2.261,6.963c-5.952,28.702-5.952,57.808,0,86.511c0.511,2.463,1.276,4.792,2.262,6.964
	c-0.791-0.02-1.583-0.036-2.373-0.055C23.485,399.048,16.757,393.744,14.83,386.341z M194.682,401.515
	c-0.345-2.827-0.6-6.393-0.726-10.365c-0.923-27.919-0.923-56.231,0-84.156c0.126-3.966,0.38-7.53,0.725-10.356
	c7.636-0.023,15.273-0.035,22.91-0.035c7.635,0,15.27,0.012,22.904,0.035c0.35,2.855,0.612,6.458,0.736,10.36
	c0.912,27.92,0.912,56.233,0,84.158c-0.124,3.9-0.386,7.503-0.736,10.358C225.225,401.562,209.952,401.562,194.682,401.515z
	 M420.356,386.341c-1.927,7.403-8.655,12.708-16.362,12.899c-0.791,0.02-1.583,0.036-2.373,0.055
	c0.987-2.173,1.753-4.503,2.264-6.965c5.952-28.702,5.952-57.808,0-86.511c-0.51-2.461-1.276-4.79-2.263-6.962
	c0.79,0.02,1.582,0.036,2.372,0.055c7.707,0.192,14.436,5.497,16.362,12.899C426.79,336.539,426.79,361.614,420.356,386.341z"/>
</svg>